<?xml version="1.0" encoding="UTF-8"?>
<!-- Created with Inkscape (http://www.inkscape.org/) -->
<svg width="272.12" height="181.41" version="1.1" viewBox="0 0 272.12 181.41" xmlns="http://www.w3.org/2000/svg">
 <g>
  <path transform="matrix(.13333 0 0 -.13333 0 181.41)" d="m0 1360.6h2040.9l0.01-1360.6h-2040.9l-0.0039062 1360.6" fill="#fff"/>
  <path transform="matrix(.13333 0 0 -.13333 0 181.41)" d="m436.72 747.97c10.226-16.219 18.238-15.942 30.347-15.942-10 7.653-16.597 17.5-19.769 22.539l-18.711 29.922c-1.828 9.219-6.602 17.852-13.75 24.301 2.391 0.887 4.422 1.867 5.59 2.77-12.192 0-24.297 6.21-30.981 6.21-4.25 0-7.027-2.582-7.027-5.941 0.277-3.789 4.18-7.609 11.328-7.609 1.641 0 3.711 0.187 5.981 0.578 3.902-5.391 7.031-10.27 7.031-17.258 0-13.133-15.672-23.32-31.492-23.32-0.887 0-1.75 0.027-2.61 0.109-1.449 3.238-6.211 8.672-6.211 14.891 0 10.429 6.789 18.898 6.789 29.207 0 6.414-3.117 10.39-4.328 12.043 1.949 1.789 4.063 4.019 4.571 5.539-1.141-0.508-2.461-0.539-4.418-0.539-7.582 0-13.793 1.949-19.801 1.949-3.442 0-4.34-1.063-4.34-2.07 0-0.352 0.039-0.743 0.16-0.942-1.293 0.512-2.5 0.82-3.953 1.094-1.746 0.355-3.668 0.508-5.699 0.508-7.34 0-9.918-3.039-9.918-5.699 0-2.231 1.758-6.25 3.75-9.379 2.847 1.449 6.25 2.425 7.808 2.425 3.911 0 7.34-3.707 9.18-8.086-2.617-0.312-3.129-0.433-5.738-0.433-7.153 0-11.992 2.543-12.973 2.543-0.117 0-0.308-0.039-0.308-0.199 0-1.012 2.031-3.633 6.007-5.075 5.243-1.957 13.133-2.738 14.422-2.968 0-0.239-1.328-2.7-2.82-3.168-0.309-0.114-0.539-0.114-0.93-0.039-5.468 1.097-7 1.527-13.949 4.175-0.23 0.082-0.352-0.039-0.352-0.265 0-2.735 7.114-8.832 13.512-11.133-5.351-6.84-11.992-13.789-15.109-24.379-0.903-0.082-1.762-0.109-2.66-0.109-15.821 0-31.481 10.187-31.481 23.32 0 6.988 3.121 11.867 7.031 17.258 2.258-0.391 4.329-0.578 5.981-0.578 7.137 0 11.047 3.82 11.316 7.609 0 3.359-2.73 5.941-7.027 5.941-6.68 0-18.75-6.21-30.973-6.21 1.211-0.903 3.203-1.883 5.582-2.77-7.152-6.449-11.91-15.082-13.75-24.301l-18.672-29.922c-3.16-5.039-9.808-14.886-19.808-22.539 12.07 0 20.117-0.277 30.359 15.942l9.571 15.308c0.738-1.988 1.601-3.91 2.609-5.82l-19.059-30.508c-3.16-5.082-9.761-14.801-19.8-22.543 12.109 0 20.109-0.269 30.351 15.942l16.399 26.25c1.25-1.289 2.539-2.582 3.91-3.789l-23.16-37.071c-3.211-5.082-9.731-14.808-19.809-22.5 12.109 0 20.117-0.312 30.348 15.899l22.582 36.132c1.488-0.941 3.007-1.843 4.609-2.703l-27.582-44.14c-3.156-5.039-9.719-14.719-19.797-22.5 12.11 0 20.117-0.27 30.387 15.902l28.359 45.43c1.684-0.621 3.403-1.25 5.121-1.789l-32.066-51.332c-3.133-5-9.852-14.891-19.774-22.5 12.071 0 20.122-0.282 30.313 15.902l34.18 54.68c0.347-0.043 0.699-0.071 1.058-0.153 0.93-2.968 1.559-5.75 1.559-8.476 0-17.192-11.25-32.383-24.809-44.102 0.86-0.351 2.391-0.512 3.75-0.512 2.821 0 4.61 0.161 5.899 0.391-3.157-7.148-9.879-16.371-13.278-21.09-4.449 0.782-10.898 1.403-15.121 1.403-4.41 0-4.918-2.575-4.918-4.883 0-4.02 1.879-7.231 4.059-8.981 0.82 2.032 2.469 4.762 10.629 4.762 0.16 0 0.472 0 0.82-0.039-2.379-2.652-9.84-8.672-9.84-13.551 0-3.199 3.512-8.051 8.199-8.051-0.269 1.059-0.269 1.989-0.269 2.739 0 3.902 3.512 8.511 6.441 11.75-0.082-0.969-0.043-0.86-0.043-1.989 0-9.289 0.864-13.589 6.762-13.589 2.891 0 4.883 1.597 5.59 2.07-3.828 3.551-4.031 6.328-4.031 11.519 0 1.372 0 2.7 0.043 4.532 0 1.207-0.043 2.777-0.192 3.949 2.11 0.269 2.973 0.269 4.571 0.269 0 0 8.402 0.668 10.429-3.711 2.262 2.114 5.582 5.04 5.582 8.282 0 2.148-1.011 4.609-5.351 4.609-1.641 0-6.801-1.012-11.09-1.012 1.168 2.571 6.332 10.114 10.777 15.582 0.66-2.109 1.723-4.41 4.063-6.289 0.347 3.52 2.379 14.649 7.89 21.168 0.668-4.41 1.52-8.898 1.52-18.429 0-23.129-5.578-40.239-17.379-43.481 1.527-2.687 4.809-5.078 8.168-5.078 4.289 0 6.68 4.891 9.062 9.488 1.25-3.39 4.688-11.75 8.161-11.75 3.476 0 6.918 8.36 8.168 11.75 2.378-4.597 4.757-9.488 9.058-9.488 3.403 0 6.641 2.391 8.16 5.078-11.789 3.242-17.379 20.352-17.379 43.481 0 9.531 0.86 14.019 1.52 18.429 5.512-6.519 7.582-17.648 7.891-21.168 2.347 1.879 3.398 4.18 4.07 6.289 4.449-5.468 9.609-13.011 10.781-15.582-4.301 0-9.461 1.012-11.101 1.012-4.332 0-5.348-2.461-5.348-4.609 0-3.242 3.316-6.168 5.586-8.282 2.031 4.379 10.43 3.711 10.43 3.711 1.64 0 2.503 0 4.613-0.269-0.203-1.172-0.242-2.742-0.203-3.949v-4.532c0-5.191-0.188-7.968-4.02-11.519 0.703-0.473 2.692-2.07 5.582-2.07 5.899 0 6.758 4.3 6.758 13.589 0 1.129 0.043 1.02-0.039 1.989 2.93-3.239 6.449-7.848 6.449-11.75 0-0.75 0.043-1.68-0.269-2.739 4.679 0 8.199 4.852 8.199 8.051 0 4.879-7.457 10.899-9.836 13.551 0.387 0.039 0.656 0.039 0.816 0.039 8.16 0 9.801-2.73 10.621-4.762 2.192 1.75 4.063 4.961 4.063 8.981 0 2.308-0.5 4.883-4.922 4.883-4.219 0-10.66-0.621-15.121-1.403-3.391 4.719-10.109 13.942-13.281 21.09 1.293-0.23 3.093-0.391 5.902-0.391 1.41 0 2.891 0.161 3.75 0.512-13.512 11.719-24.801 26.91-24.801 44.102 0 2.726 0.621 5.508 1.559 8.476 0.351 0.082 0.703 0.11 1.051 0.153l34.179-54.68c10.243-16.184 18.25-15.902 30.352-15.902-9.961 7.609-16.668 17.5-19.801 22.5l-32.07 51.332c1.762 0.539 3.441 1.168 5.121 1.789l28.398-45.43c10.231-16.172 18.243-15.902 30.352-15.902-10.082 7.781-16.602 17.461-19.813 22.5l-27.539 44.14c1.571 0.86 3.09 1.762 4.571 2.703l22.582-36.132c10.238-16.211 18.238-15.899 30.347-15.899-10.078 7.692-16.597 17.418-19.797 22.5l-23.171 37.071c1.371 1.207 2.66 2.5 3.871 3.789l16.449-26.25c10.23-16.211 18.238-15.942 30.351-15.942-10.043 7.742-16.601 17.461-19.812 22.543l-19.059 30.508c1.02 1.91 1.918 3.832 2.618 5.82zm-153.05 35.109c0 11.41 8.277 20.391 11.211 22.93 0.707-0.153 1.406-0.309 2.109-0.469-3.121-3.793-8.593-10.113-8.593-18.512 0-16.679 17.812-31.172 38.011-31.172-0.121-1.449-0.199-2.929-0.199-4.5 0-2.457 0.121-4.718 0.348-6.867-22.809 0.117-42.887 18.629-42.887 38.59m30.937-136.76-0.16-0.386h0.391c6.41 0 9.543 0.468 11.609 0.789 1.09 0.109 1.871 0.269 2.692 0.269 1.64 0 2.929-0.203 2.929-2.23 0-1.371-1.601-3.512-3.16-4.762-2.351 2.184-5.629 2.652-10.429 2.652-2.231 0-5.2-0.429-6.762-0.621l-0.238-0.039-0.27-0.043 0.078-0.738c0.192-1.328 0.43-2.969 0.43-5.238l-0.039-1.993-0.039-2.539c0-5.429 0.738-8.511 2.66-10.859-0.473-0.191-1.289-0.352-1.801-0.352-3.398 0-4.379 1.493-4.379 11.211 0 1.95-0.07 3.789-0.152 5l-0.117 1.84-0.391-0.351c-5.039-3.828-10.191-10.668-10.512-15.778-1.519 0.969-3.16 3.161-3.16 4.84 0 2.809 4.223 6.988 9.063 11.828l2.769 2.821 0.399 0.351-0.938 0.231c-1.062 0.277-2.973 0.75-4.652 0.75-5.43 0-8.828-1.024-10.938-3.321-0.781 1.09-1.402 3.668-1.402 5.149 0 0.98 0.191 1.64 0.582 2.031 0.469 0.469 1.207 0.469 1.879 0.469h0.109c6.02 0 13.211-1.09 15.981-1.52l0.199-0.039 0.07 0.117c0.512 0.661 11.961 15.891 14.93 23.981 0.66 0.269 1.25 0.473 2.461 0.473 2.258 0 2.891-1.52 3.512-3.872-7.153-8.711-11.602-15.468-13.204-20.121m61.723 23.993c1.207 0 1.789-0.204 2.5-0.473 2.969-8.09 14.406-23.32 14.879-23.981l0.121-0.117 0.149 0.039c2.82 0.43 9.968 1.52 15.98 1.52h0.16c0.617 0 1.36 0 1.828-0.469 0.391-0.391 0.59-1.051 0.59-2.031 0-1.481-0.629-4.059-1.406-5.149-2.074 2.297-5.512 3.321-10.934 3.321-1.648 0-3.597-0.473-4.648-0.75l-0.43-0.114-0.469-0.117 3.118-3.172c4.89-4.84 9.07-9.019 9.07-11.828 0-1.679-1.641-3.871-3.129-4.84-0.352 5.11-5.512 11.95-10.551 15.778l-0.429 0.351-0.071-1.84c-0.039-1.211-0.16-3.05-0.16-5 0-9.718-1.019-11.211-4.379-11.211-0.5 0-1.281 0.161-1.789 0.352 1.906 2.348 2.649 5.43 2.649 10.859l-0.032 2.539-0.039 1.993c0 2.269 0.231 3.91 0.43 5.238l0.07 0.738-0.5 0.082c-1.609 0.192-4.527 0.621-6.761 0.621-4.809 0-8.09-0.468-10.43-2.652-1.559 1.25-3.168 3.391-3.168 4.762 0 2.027 1.25 2.23 2.93 2.23 0.82 0 1.609-0.16 2.699-0.269 2.07-0.321 5.203-0.789 11.601-0.789h0.391l-0.121 0.386c-1.641 4.653-6.09 11.41-13.238 20.121 0.629 2.352 1.246 3.872 3.519 3.872m-26.492 132.97c-0.738 2.969-2.219 6.012-4.18 8.321-1.75 2.07-4.64 4.531-8.59 4.531-1.8 0-4.769-0.82-6.679-1.641-0.699 1.289-2.11 4.41-2.11 5.821 0 1.441 2.461 2.929 7.149 2.929 10.312 0 16.48-4.648 16.48-12.461 0-2.781-1.09-5.281-2.07-7.5m4.609 10.192c-0.347 2.187-1.207 4.179-2.5 5.898 0.082 2.031 0.903 3.988 4.18 2.383-1.746-1.793-0.43-5.004-0.43-5.004s3.641 1.684 2.852 4.07c5.359-1.289 1.531-8.437-4.102-7.347m20.082-68.981c0.27 2.231 0.43 4.531 0.43 6.867 0 1.293 0 2.821-0.16 4.5 19.969 0.313 37.43 14.641 37.43 31.172 0 8.399-5.469 14.719-8.559 18.512 0.668 0.16 1.367 0.316 2.07 0.469 2.93-2.539 11.207-11.52 11.207-22.93 0-19.801-19.8-38.199-42.418-38.59" fill="#231f20"/>
  <path transform="matrix(.13333 0 0 -.13333 0 181.41)" d="m527.8 817.42h35.004v-200h-35.004v200" fill="#231f20"/>
  <path transform="matrix(.13333 0 0 -.13333 0 181.41)" d="m527.8 618.43h35.004v-201.02h-35.004v201.02" fill="#ed1c24"/>
  <path transform="matrix(.13333 0 0 -.13333 0 181.41)" d="m527.8 417.42h35.004v-200h-35.004v200" fill="#f2cf04"/>
  <g fill="#231f20">
   <path transform="matrix(.13333 0 0 -.13333 0 181.41)" d="m1317.5 795.15-8.16-32.07c-1.68-6.441-3.13-12.223-3.36-16.68h-0.24c-0.23 4.457-1.91 10.348-3.75 16.84l-8.98 31.91h-10.43l18.59-57.5-0.86-3c-2.5-8.871-5.62-13.211-12.46-13.211-2.03 0-3.36 0.512-4.1 0.86v-8.399c0.62-0.351 2.3-1.089 4.69-1.089 11.4 0 16.44 7.339 20.66 21.367l17.97 60.972zm-37.23 0.121c-0.93 0.348-2.5 0.938-5.27 0.938-7.31 0-10.43-4.301-12.11-8.867h-0.23v7.808h-8.91v-57.609h9.73v42.219c1.44 3.871 4.68 7.808 10.82 7.808 2.61 0 4.29-0.699 4.8-0.929zm-35.97-56.64-1.33 7.769c-0.98-0.582-3.13-1.679-6.02-1.679-4.92 0-6.83 2.429-6.83 10.59v31.91h12.61l1.21 7.929h-13.82v16.059h-8.64l-1.09-16.059-6.95-1.441v-6.488h6.95v-33.243c0-12.73 5.04-17.886 14.88-17.886 5.16 0 8.17 1.906 9.03 2.539zm-39.14 51.84c-1.92 1.91-5.75 6.129-14.61 6.129-9.38 0-16.68-6.372-16.68-14.879 0-7.93 4.29-12.621 11.48-17.192l3.63-2.269c5.51-3.469 8.4-5.391 8.4-10.942 0-3.711-3.12-6.597-8.9-6.597-6.22 0-9.85 3.75-11.64 5.668l-4.65-7.7c2.26-2.378 6.95-6.597 16.17-6.597 11.76 0 18.36 7.066 18.36 16.207 0 8.519-4.81 13.203-12.58 17.89l-3.59 2.153c-5.2 3.129-7.58 5.508-7.58 9.836 0 3.363 2.77 6.14 7.93 6.14 5.39 0 8.75-3.359 10.08-4.808zm-43.91 4.679h-9.73v-57.609h9.73zm-4.81 13.911c3.83 0 6.49 2.89 6.49 6.949 0 3.988-2.66 6.84-6.49 6.84-3.94 0-6.6-2.852-6.6-6.84 0-4.059 2.66-6.949 6.6-6.949zm-39.1-20.743c6.72 0 9.96-3.988 9.96-13.711v-37.066h9.69v37.809c0 15.578-6.44 21.25-16.8 21.25-8.98 0-14.14-5.899-15.23-7.93h-0.23v6.48h-8.87v-57.609h9.72v44.41c1.92 2.379 5.86 6.367 11.76 6.367zm-36.36 6.832h-9.73v-57.609h9.73zm-4.81 13.911c3.83 0 6.49 2.89 6.49 6.949 0 3.988-2.66 6.84-6.49 6.84-3.94 0-6.6-2.852-6.6-6.84 0-4.059 2.66-6.949 6.6-6.949zm-32.77 11.289-19.53-57.27c-1.84-5.269-3.36-10.539-3.52-14.141h-0.23c-0.24 3.602-1.8 8.989-3.6 14.301l-19.572 57.11h-11.64v-82.809h10.078v39.367c0 9.961-0.117 19.531-0.469 23.281h0.352c0.738-3.589 3.636-12.847 6.721-22.218l13.71-40.43h8.28l13.68 40.43c3.12 9.371 5.85 18.629 6.71 22.218h0.36c-0.36-3.468-0.47-13.32-0.47-23.281v-39.367h10.08v82.809zm-103.32 3.121-9.73-1.09v-72.231c0-10.191 4.449-13.711 10.941-13.711 4.328 0 6.828 1.102 7.809 1.559l-0.86 7.23c-0.582-0.23-1.8-0.738-3.589-0.738-3.36 0-4.571 1.68-4.571 6.481zm-33.832-60.743v-12.687c-1.207-1.801-3.949-5.672-9.609-5.672-4.797 0-7.66 3.012-7.66 8.91 0 6.328 4.929 8.981 14.14 9.328zm0 7.231h-3.008c-13.082 0-23.98-4.457-23.98-17.781 0-9.367 6.601-16.086 15.348-16.086 7.3 0 10.781 4.918 12.113 7.808h0.23c0.157-2.89 0.278-4.679 0.387-6.359h9.223c-0.231 1.559-0.7 7.066-0.7 11.988v26.289c0 14.532-6.253 20.782-18.011 20.782-9.262 0-14.77-4.45-17.27-6.993l4.071-6.488c2.148 1.949 6.007 5.199 11.757 5.199 6.25 0 9.84-3.129 9.84-12.847zm-31.449 25.312c-0.93 0.348-2.5 0.938-5.27 0.938-7.3 0-10.429-4.301-12.109-8.867h-0.23v7.808h-8.911v-57.609h9.731v42.219c1.441 3.871 4.68 7.808 10.82 7.808 2.61 0 4.289-0.699 4.758-0.929zm-38.277-52.343-3.594 6.832c-1.328-1.289-5.27-5.039-12.11-5.039-9.726 0-15 6.371-15.628 19.808h29.418c0.351 2.77 0.703 6.25 0.703 11.172 0 13.789-6.723 20.899-17.621 20.899-11.989 0-21.95-9.141-21.95-29.532 0-21.718 9.102-30.976 23.629-30.976 10.903 0 15.59 5.156 17.153 6.836zm-19.414 45.742c6.089 0 9.332-4.692 9.332-12.621 0-1.801-0.11-3.36-0.231-4.18h-20.898c0.507 10.781 4.918 16.801 11.797 16.801zm-42.739-45h0.239v-6.129h8.871v85.93l-9.688-1.09v-27.621c-1.84 0.742-4.449 1.449-8.172 1.449-12.261 0-25.461-7.418-25.461-30.707 0-21.012 9.25-29.41 20.153-29.41 9.14 0 12.968 5.777 14.058 7.578zm-11.398 1.051c-6.723 0-12.742 5.32-12.742 21.136 0 16.321 7.109 22.071 16.101 22.071 3.469 0 5.778-0.938 7.461-2.039v-35.5c-1.332-1.918-4.691-5.668-10.82-5.668zm-31.922-1.793-3.59 6.832c-1.328-1.289-5.269-5.039-12.148-5.039-9.692 0-15 6.371-15.582 19.808h29.41c0.351 2.77 0.703 6.25 0.703 11.172 0 13.789-6.723 20.899-17.613 20.899-12.039 0-22-9.141-22-29.532 0-21.718 9.14-30.976 23.679-30.976 10.891 0 15.582 5.156 17.141 6.836zm-19.449 45.742c6.129 0 9.379-4.692 9.379-12.621 0-1.801-0.118-3.36-0.239-4.18h-20.898c0.469 10.781 4.918 16.801 11.758 16.801zm-58.91-51.129v35.617h27.23v8.281h-27.23v30.629h29.539l0.699 8.282h-40.668v-82.809h10.43"/>
   <path transform="matrix(.13333 0 0 -.13333 0 181.41)" d="m1657.6 675.15-8.17-32.07c-1.68-6.441-3.12-12.223-3.36-16.68h-0.23c-0.24 4.457-1.91 10.348-3.75 16.84l-8.99 31.91h-10.42l18.59-57.5-0.86-3c-2.5-8.871-5.63-13.211-12.46-13.211-2.03 0-3.36 0.508-4.06 0.86v-8.399c0.58-0.351 2.26-1.089 4.64-1.089 11.41 0 16.45 7.339 20.67 21.367l17.97 60.972zm-66.72-74.761c-6.84 0-10.2 3.121-10.2 9.218 0 5.782 3.09 8.512 5.86 10.075 1.33-0.235 2.89-0.352 4.46-0.352h7.3c5.9 0 9.73-2.152 9.73-7.652 0-5.899-5.39-11.289-17.15-11.289zm27.11 12.691c0 10.938-8.17 15.277-19.06 15.277h-7.35c-4.18 0-5.86 1.684-5.86 4.063 0 3.008 2.74 4.57 4.65 5.391 0.98-0.122 1.95-0.122 3.01-0.122 11.29 0 19.92 7.352 19.92 19.571 0 3.832-0.94 7.422-2.73 10.308h7.18l1.33 7.582h-17.54c-2.38 0.942-4.92 1.45-7.65 1.45-10.82 0-19.57-6.372-19.57-19.34 0-9.141 3.94-14.879 9.84-17.653v-0.238c-1.45-0.699-6.99-3.121-6.99-9.328 0-3.641 1.33-6.25 3.75-8.051v-0.242c-2.66-1.437-9.61-5.539-9.61-14.059 0-9.961 6.6-15.582 18.83-15.582 17.03 0 27.85 8.633 27.85 20.973zm-14.18 44.18c0-8.282-4.53-11.52-10.08-11.52-5.27 0-9.96 3.238-9.96 11.52 0 8.277 4.69 11.531 10.23 11.531 5.28 0 9.81-3.254 9.81-11.531zm-49.65-10.942c0-15.226-4.69-21.597-12.62-21.597s-12.73 6.371-12.73 21.597c0 15.282 4.69 22 12.62 22s12.73-6.718 12.73-22zm-35.43 0c0-21.597 9.73-30.226 22.46-30.226 12.58 0 23.05 8.789 23.05 30.226 0 21.25-9.73 30.282-22.46 30.282-12.35 0-23.05-9.032-23.05-30.282zm-15.12 57.153-9.68-1.09v-72.231c0-10.191 4.41-13.711 10.89-13.711 4.34 0 6.84 1.102 7.82 1.559l-0.86 7.23c-0.59-0.23-1.8-0.738-3.6-0.738-3.36 0-4.57 1.68-4.57 6.481zm-31.91-57.153c0-15.226-4.69-21.597-12.58-21.597-7.93 0-12.73 6.371-12.73 21.597 0 15.282 4.68 22 12.61 22 7.89 0 12.7-6.718 12.7-22zm-35.39 0c0-21.597 9.72-30.226 22.42-30.226 12.62 0 23.05 8.789 23.05 30.226 0 21.25-9.73 30.282-22.42 30.282-12.39 0-23.05-9.032-23.05-30.282zm-31.56 22c6.71 0 9.96-3.988 9.96-13.711v-37.066h9.72v37.809c0 15.578-6.48 21.25-16.79 21.25-9.03 0-14.18-5.903-15.24-7.93h-0.27v6.48h-8.87v-57.609h9.73v44.406c1.91 2.383 5.9 6.371 11.76 6.371zm-55.67 0c6.72 0 9.96-3.988 9.96-13.711v-37.066h9.69v37.809c0 15.23-6.33 21.25-16.41 21.25-9.25 0-13.59-5.551-14.76-7.352h-0.24v34.223l-9.72-1.09v-84.84h9.72v44.406c1.92 2.383 5.86 6.371 11.76 6.371zm-31.68 2.5c-1.8 2.032-5.9 5.782-14.65 5.782-11.4 0-24.14-8.051-24.14-30.161 0-22.539 10.2-30.347 23.05-30.347 9.02 0 13.44 4.219 15 6.015l-3.95 6.711c-1.21-1.32-4.21-4.097-10.07-4.097-8.28 0-13.95 5.547-13.95 22.457 0 15.242 6.49 21.14 14.77 21.14 5.78 0 8.79-3.25 9.84-4.34zm-47.89-47.89-3.59 6.832c-1.33-1.289-5.28-5.039-12.15-5.039-9.69 0-15 6.371-15.59 19.808h29.42c0.35 2.77 0.7 6.25 0.7 11.168 0 13.793-6.72 20.903-17.62 20.903-12.03 0-21.99-9.141-21.99-29.532 0-21.718 9.14-30.976 23.67-30.976 10.9 0 15.59 5.156 17.15 6.836zm-19.45 45.742c6.13 0 9.37-4.692 9.37-12.621 0-1.801-0.11-3.36-0.23-4.18h-20.9c0.47 10.781 4.92 16.801 11.76 16.801zm-18.24 31.68h-55.32v-8.282h22.07v-74.527h10.47v74.527h22.07zm-95.51-99.61c6.37 2.258 13.9 7.418 13.9 18.36 0 7.929-3.24 11.757-7.89 11.757-3.36 0-6.25-2.148-6.25-6.488 0-4.41 2.89-6.828 6.61-6.828h0.35c0-6.961-3.71-10.082-8.75-12.582zm-32.89 67.578c6.72 0 9.96-3.988 9.96-13.711v-37.066h9.72v37.809c0 15.23-6.36 21.25-16.44 21.25-9.22 0-13.56-5.551-14.77-7.352h-0.23v34.223l-9.73-1.09v-84.84h9.73v44.406c1.91 2.383 5.9 6.371 11.76 6.371zm-31.68 2.5c-1.8 2.032-5.86 5.782-14.65 5.782-11.37 0-24.1-8.051-24.1-30.161 0-22.539 10.19-30.347 23.04-30.347 8.99 0 13.44 4.219 15 6.015l-3.98 6.711c-1.17-1.32-4.18-4.097-10.08-4.097-8.28 0-13.9 5.547-13.9 22.457 0 15.242 6.48 21.14 14.76 21.14 5.74 0 8.75-3.25 9.85-4.34zm-43.09 4.45c-0.94 0.351-2.5 0.941-5.27 0.941-7.31 0-10.43-4.301-12.11-8.867h-0.24v7.808h-8.86v-57.609h9.69v42.219c1.44 3.871 4.68 7.808 10.82 7.808 2.61 0 4.29-0.699 4.8-0.929zm-50.744-32.54v-12.687c-1.207-1.801-3.949-5.672-9.61-5.672-4.8 0-7.66 3.012-7.66 8.91 0 6.328 4.93 8.981 14.141 9.328zm0 7.231h-3.008c-13.082 0-23.98-4.461-23.98-17.781 0-9.367 6.597-16.086 15.347-16.086 7.301 0 10.781 4.918 12.11 7.808h0.23c0.121-2.89 0.281-4.679 0.391-6.359h9.218c-0.226 1.559-0.699 7.066-0.699 11.988v26.289c0 14.532-6.25 20.782-18.008 20.782-9.261 0-14.761-4.45-17.261-6.993l4.062-6.488c2.149 1.949 6.008 5.199 11.758 5.199 6.25 0 9.84-3.129 9.84-12.847zm-35.391-27.031-3.59 6.832c-1.328-1.289-5.32-5.039-12.148-5.039-9.731 0-15 6.371-15.59 19.808h29.41c0.36 2.77 0.711 6.25 0.711 11.168 0 13.793-6.723 20.903-17.66 20.903-11.992 0-21.949-9.141-21.949-29.532 0-21.718 9.136-30.976 23.629-30.976 10.937 0 15.629 5.156 17.187 6.836zm-19.449 45.742c6.129 0 9.371-4.692 9.371-12.621 0-1.801-0.121-3.36-0.23-4.18h-20.899c0.469 10.781 4.918 16.801 11.758 16.801zm-31.68 1.801c-1.918 1.91-5.75 6.129-14.648 6.129-9.34 0-16.68-6.372-16.68-14.879 0-7.93 4.328-12.621 11.52-17.192l3.597-2.269c5.543-3.469 8.391-5.391 8.391-10.942 0-3.711-3.078-6.597-8.859-6.597-6.25 0-9.848 3.75-11.641 5.668l-4.691-7.7c2.3-2.378 6.953-6.597 16.21-6.597 11.762 0 18.36 7.066 18.36 16.207 0 8.519-4.809 13.199-12.617 17.89l-3.59 2.153c-5.16 3.129-7.543 5.508-7.543 9.836 0 3.359 2.73 6.14 7.93 6.14 5.39 0 8.753-3.359 10.082-4.808zm-40.789-47.543-3.629 6.832c-1.293-1.289-5.269-5.039-12.109-5.039-9.723 0-15 6.371-15.582 19.808h29.371c0.391 2.77 0.738 6.25 0.738 11.168 0 13.793-6.711 20.903-17.648 20.903-11.992 0-21.961-9.141-21.961-29.532 0-21.718 9.148-30.976 23.641-30.976 10.941 0 15.621 5.156 17.179 6.836zm-19.449 45.742c6.129 0 9.379-4.692 9.379-12.621 0-1.801-0.16-3.36-0.281-4.18h-20.86c0.473 10.781 4.93 16.801 11.762 16.801zm-66.953-17.422h4.57c1.91 0 3.832 0.109 5.621 0.23l17.153-33.937h12.269l-19.449 36.477c9.488 4.062 14.137 12.339 14.137 23.16 0 15.242-9.34 23.172-29.258 23.172h-15.473v-82.809h10.43zm23.16 25.352c0-10.821-6.008-17.071-18.59-17.071h-4.57v32.539h5.043c12.34 0 18.117-5.039 18.117-15.468zm-68.508-9.379 1.168 7.929h-12.93v10.321c0 7.527 2.5 10.066 7.071 10.066 2.5 0 4.301-0.969 5.269-1.559l2.032 8.051c-0.93 0.578-4.059 2.149-8.161 2.149-8.519 0-15.941-5.039-15.941-17.617v-11.52l-6.988-1.332v-6.488h6.988v-49.68h9.73v49.68zm-45.859-20.903c0-15.226-4.692-21.597-12.621-21.597-7.891 0-12.692 6.371-12.692 21.597 0 15.282 4.68 22 12.571 22 7.929 0 12.742-6.718 12.742-22zm-35.391 0c0-21.597 9.719-30.226 22.418-30.226 12.621 0 23.051 8.789 23.051 30.226 0 21.25-9.731 30.282-22.43 30.282-12.379 0-23.039-9.032-23.039-30.282"/>
   <path transform="matrix(.13333 0 0 -.13333 0 181.41)" d="m1063.7 502.93-3.59 6.832c-1.29-1.289-5.28-5.039-12.11-5.039-9.73 0-15 6.371-15.59 19.808h29.38c0.39 2.77 0.74 6.25 0.74 11.168 0 13.793-6.72 20.903-17.66 20.903-11.99 0-21.95-9.141-21.95-29.532 0-21.718 9.1-30.976 23.63-30.976 10.94 0 15.63 5.156 17.15 6.836zm-19.41 45.742c6.09 0 9.33-4.692 9.33-12.621 0-1.801-0.11-3.36-0.23-4.18h-20.86c0.47 10.781 4.92 16.801 11.76 16.801zm-27.97 2.148c-1.8 2.032-5.9 5.782-14.65 5.782-11.414 0-24.102-8.051-24.102-30.161 0-22.539 10.188-30.347 23.042-30.347 8.99 0 13.44 4.219 15 6.015l-3.98 6.711c-1.21-1.32-4.18-4.097-10.08-4.097-8.283 0-13.904 5.547-13.904 22.457 0 15.242 6.481 21.14 14.764 21.14 5.74 0 8.75-3.25 9.85-4.34zm-60.353-28.09v-12.687c-1.211-1.801-3.989-5.672-9.61-5.672-4.808 0-7.699 3.012-7.699 8.91 0 6.328 4.918 8.981 14.18 9.328zm0 7.231h-3.012c-13.086 0-23.988-4.461-23.988-17.781 0-9.367 6.609-16.086 15.359-16.086 7.301 0 10.781 4.918 12.109 7.808h0.231c0.121-2.89 0.23-4.679 0.351-6.359h9.258c-0.238 1.559-0.699 7.066-0.699 11.988v26.289c0 14.532-6.25 20.782-18.008 20.782-9.262 0-14.773-4.45-17.312-6.993l4.113-6.488c2.137 1.949 5.969 5.199 11.75 5.199 6.246 0 9.848-3.129 9.848-12.847zm-60.86-33.52c13.078 0 24.961 8.168 24.961 31.45 0 20.269-7.781 28.711-19.691 28.711-8.871 0-13.051-5.039-14.489-7.582h-0.242v6.132h-8.898v-81.601h9.719v24.34c1.8-0.711 4.691-1.45 8.64-1.45zm0 8.668c-3.949 0-6.84 1.184-8.64 2.5v35.391c1.8 2.07 5.281 5.32 11.289 5.32 7.07 0 12.23-5.668 12.23-21.14 0-16.68-5.98-22.071-14.879-22.071zm-32.621 70.43c-1.801 1.453-7.109 6.25-18.117 6.25-12.973 0-21.262-8.156-21.262-18.859 0-11.367 5.278-16.918 14.418-24.571l6.723-5.668c6.949-5.859 10.308-9.718 10.308-16.91 0-5.629-4.57-10.308-12.73-10.308-8.52 0-14.031 5.269-16.059 7.179l-4.218-9.101c2.418-2.192 8.636-7.457 20.507-7.457 14.879 0 23.051 8.515 23.051 21.129 0 10.777-6.101 17.269-13.91 23.75l-6.719 5.507c-7.582 6.129-11.05 10.243-11.05 16.68 0 5.199 3.75 9.61 10.941 9.61 7.648 0 12.457-3.829 13.777-5.161zm-87.148-71.867h0.269v-6.129h8.871v85.93l-9.722-1.09v-27.621c-1.801 0.738-4.457 1.449-8.168 1.449-12.219 0-25.43-7.418-25.43-30.711 0-21.008 9.219-29.406 20.16-29.406 9.141 0 12.969 5.777 14.02 7.578zm-11.371 1.051c-6.711 0-12.731 5.32-12.731 21.136 0 16.321 7.07 22.071 16.09 22.071 3.48 0 5.75-0.938 7.43-2.039v-35.5c-1.328-1.918-4.688-5.668-10.789-5.668zm-54.372 43.597c6.723 0 9.961-3.988 9.961-13.711v-37.066h9.731v37.809c0 15.578-6.492 21.25-16.801 21.25-9.019 0-14.18-5.903-15.23-7.93h-0.278v6.48h-8.871v-57.609h9.731v44.406c1.918 2.383 5.859 6.371 11.757 6.371zm-45.699-25.59v-12.687c-1.211-1.801-3.988-5.672-9.609-5.672-4.809 0-7.699 3.012-7.699 8.91 0 6.328 4.918 8.981 14.179 9.328zm0 7.231h-3.008c-13.093 0-24.019-4.461-24.019-17.781 0-9.367 6.598-16.086 15.387-16.086 7.3 0 10.781 4.918 12.113 7.808h0.226c0.122-2.89 0.231-4.679 0.352-6.359h9.258c-0.238 1.559-0.738 7.066-0.738 11.988v26.289c0 14.532-6.211 20.782-17.969 20.782-9.262 0-14.77-4.45-17.313-6.993l4.102-6.488c2.148 1.949 5.98 5.199 11.762 5.199 6.207 0 9.847-3.129 9.847-12.847v-5.512"/>
   <path transform="matrix(.13333 0 0 -.13333 0 181.41)" d="m321.8 1114.7-22.879-66.88h-9.66l-11.973 38.32h-0.203l-13.438-38.32h-9.558l-23.305 66.88-4.512 1.04c-1.054 0.32-1.472 0.74-1.472 1.37 0 0.95 0.734 2.2 1.156 3.14h25.613s0.106-0.62 0.106-1.15c0-1.68-0.84-3.04-3.567-3.67l-4.304-0.95 16.902-54.17h0.312l12.707 36.22-5.57 18.17-4.406 1.04c-1.051 0.32-1.473 0.74-1.473 1.37 0 0.95 0.735 2.2 1.157 3.14h25.511s0.102-0.62 0.102-1.15c0-1.68-0.84-3.04-3.563-3.67l-4.726-0.95 15.117-54.27h0.312l17.852 54.38-7.355 1.36c-1.043 0.21-1.465 0.53-1.465 1.16 0 0.95 0.941 2.73 1.152 3.14h21.523s0.102-0.62 0.102-1.15c0-1.88-0.84-3.04-3.566-3.78l-2.629-0.62"/>
   <path transform="matrix(.13333 0 0 -.13333 0 181.41)" d="m343.99 1109.5c-3.887 0-6.828 2.63-6.828 6.72 0 3.98 2.941 6.72 6.828 6.72 3.781 0 6.922-2.74 6.922-6.72 0-4.09-3.141-6.72-6.922-6.72zm5.352-56.06 6.191-1.36c1.055-0.22 1.477-0.53 1.477-1.37 0-1.05-0.84-2.63-1.059-2.94h-24.035s-0.102 0.63-0.102 0.95c0 1.88 1.258 2.72 3.25 3.46l3.672 1.26v38.84l-7.453 1.16s-0.105 0.63-0.105 1.05c0 1.78 1.367 3.04 3.886 3.25l14.278 1.37v-45.67"/>
   <path transform="matrix(.13333 0 0 -.13333 0 181.41)" d="m392.49 1092.7h-14.379v-30.65c0-4.73 1.465-8.61 6.719-8.61 4.094 0 7.449 1.78 8.289 2.52 0.531-0.84 0.949-2.42 0.949-3.46 0-1.06-3.675-5.99-13.23-5.99s-13.332 5.57-13.332 13.65v32.54h-7.871s-0.11 0.63-0.11 0.95c0 1.99 1.262 3.14 3.254 3.56l5.149 1.26 2.41 14.18h7.773v-14.18h15.539l-1.16-5.77"/>
   <path transform="matrix(.13333 0 0 -.13333 0 181.41)" d="m417.81 1092.2h0.203c2.097 2.52 7.136 7.56 16.172 7.56 10.5 0 16.48-6.19 16.48-18.47v-27.82l6.09-1.36c1.047-0.22 1.469-0.53 1.469-1.37 0-1.05-0.84-2.63-1.051-2.94h-23.828s-0.11 0.63-0.11 0.95c0 1.88 1.262 2.83 3.254 3.46l3.469 1.26v26.56c0 8.92-4.832 11.65-10.188 11.65-6.503 0-9.968-2.84-11.96-4.83v-33.38l5.878-1.36c1.043-0.22 1.461-0.53 1.461-1.37 0-1.05-0.73-2.63-1.043-2.94h-23.832s-0.101 0.63-0.101 0.95c0 1.88 1.258 2.83 3.25 3.46l3.672 1.26v63.73l-7.45 1.04s-0.109 0.74-0.109 1.16c0 1.78 1.367 3.04 3.887 3.25l14.387 1.37v-31.82"/>
   <path transform="matrix(.13333 0 0 -.13333 0 181.41)" d="m515.04 1092.7h-12.805v-39.26l7.137-1.36c1.051-0.22 1.473-0.53 1.473-1.37 0-1.05-0.735-2.63-1.051-2.94h-24.984s-0.11 0.63-0.11 0.95c0 1.88 1.258 2.72 3.258 3.46l3.57 1.26v39.26h-7.769s-0.102 0.63-0.102 0.95c0 1.99 1.258 3.04 3.25 3.56l4.621 1.26v1.06c0 16.9 10.286 25.09 19.317 25.09 5.246 0 7.348-2.31 7.348-5.57 0-2.62-1.579-4.09-3.153-4.93-0.945 1.05-3.672 3.05-6.926 3.05-4.515 0-6.089-2.52-6.089-8.72 0-3.26 0.21-9.98 0.21-9.98h13.961l-1.156-5.77"/>
   <path transform="matrix(.13333 0 0 -.13333 0 181.41)" d="m571.57 1053.7 7.664-1.05s0.106-0.42 0.106-0.84c0-1.89-1.367-3.15-3.887-3.36l-13.855-1.26v6.93h-0.207c-1.68-2.21-6.297-7.56-15.536-7.56-11.238 0-16.484 6.61-16.484 19v26.77l-7.453 1.16s-0.106 0.63-0.106 1.05c0 1.78 1.368 3.04 3.883 3.25l14.281 1.37v-33.07c0-9.56 5.04-11.76 9.657-11.76 5.351 0 8.922 2.31 11.34 5.04v32.96l-7.457 1.16s-0.102 0.63-0.102 1.05c0 1.78 1.359 3.04 3.879 3.25l14.277 1.37v-45.46"/>
   <path transform="matrix(.13333 0 0 -.13333 0 181.41)" d="m636.97 1053.4 6.195-1.36c1.051-0.22 1.469-0.53 1.469-1.37 0-1.05-0.84-2.63-1.051-2.94h-23.832s-0.102 0.63-0.102 0.95c0 1.88 1.258 2.83 3.254 3.46l3.465 1.26v26.56c0 8.92-5.039 11.65-10.18 11.65-5.988 0-9.875-2.84-12.078-4.62v-33.59l5.985-1.36c1.054-0.22 1.472-0.53 1.472-1.37 0-1.05-0.84-2.63-1.054-2.94h-23.828s-0.11 0.63-0.11 0.95c0 1.88 1.262 2.72 3.258 3.46l3.68 1.26v38.84l-7.457 1.16s-0.106 0.63-0.106 1.05c0 1.78 1.363 3.04 3.883 3.25l14.277 1.37-0.629-7.35h0.313c2.836 3.04 7.558 7.97 17.219 7.97 10.293 0 15.957-6.61 15.957-18.47v-27.82"/>
   <path transform="matrix(.13333 0 0 -.13333 0 181.41)" d="m684.06 1090.3c-1.579 1.47-4.415 3.15-8.821 3.15-8.504 0-14.804-6.09-14.804-19.95 0-13.54 5.878-19 12.91-19 6.093 0 9.347 2.83 10.715 4.41zm10.597-36.64 7.66-1.05s0.11-0.42 0.11-0.84c0-1.89-1.367-3.15-3.887-3.36l-13.855-1.26v6.82h-0.313c-2.312-3.25-6.723-7.45-14.91-7.45-10.285 0-19.945 6.61-19.945 24.88 0 19.53 13.648 28.34 27.085 28.34 3.043 0 5.668-0.52 7.458-0.94v18.38l-7.458 1.04s-0.101 0.74-0.101 1.16c0 1.78 1.359 3.04 3.879 3.25l14.277 1.37v-70.34"/>
   <path transform="matrix(.13333 0 0 -.13333 0 181.41)" d="m721.84 1109.5c-3.887 0-6.824 2.63-6.824 6.72 0 3.98 2.937 6.72 6.824 6.72 3.781 0 6.926-2.74 6.926-6.72 0-4.09-3.145-6.72-6.926-6.72zm5.351-56.06 6.192-1.36c1.054-0.22 1.476-0.53 1.476-1.37 0-1.05-0.84-2.63-1.054-2.94h-24.039s-0.102 0.63-0.102 0.95c0 1.88 1.258 2.72 3.25 3.46l3.672 1.26v38.84l-7.449 1.16s-0.11 0.63-0.11 1.05c0 1.78 1.367 3.04 3.887 3.25l14.277 1.37v-45.67"/>
   <path transform="matrix(.13333 0 0 -.13333 0 181.41)" d="m792.54 1053.4 6.199-1.36c1.047-0.22 1.469-0.53 1.469-1.37 0-1.05-0.84-2.63-1.051-2.94h-23.832s-0.101 0.63-0.101 0.95c0 1.88 1.258 2.83 3.258 3.46l3.461 1.26v26.56c0 8.92-5.04 11.65-10.18 11.65-5.988 0-9.875-2.84-12.078-4.62v-33.59l5.98-1.36c1.059-0.22 1.477-0.53 1.477-1.37 0-1.05-0.84-2.63-1.055-2.94h-23.828s-0.106 0.63-0.106 0.95c0 1.88 1.258 2.72 3.254 3.46l3.676 1.26v38.84l-7.453 1.16s-0.102 0.63-0.102 1.05c0 1.78 1.36 3.04 3.879 3.25l14.278 1.37-0.629-7.35h0.312c2.836 3.04 7.559 7.97 17.215 7.97 10.297 0 15.957-6.61 15.957-18.47v-27.82"/>
   <path transform="matrix(.13333 0 0 -.13333 0 181.41)" d="m818.07 1082.8c0-8.29 4.199-11.54 9.446-11.54 5.671 0 9.761 3.25 9.761 11.54 0 7.46-4.09 11.24-9.547 11.24-5.461 0-9.66-3.15-9.66-11.24zm4.621-34.64c-1.476 0-2.734 0.11-3.886 0.21-2.731-1.58-4.512-4.2-4.512-7.77 0-5.46 3.355-8.93 11.019-8.93 10.18 0 16.481 4.73 16.481 10.3 0 4.3-2.414 6.19-7.766 6.19zm30.235 44.3h-8.508c1.992-2.62 3.254-5.77 3.254-9.55 0-11.13-9.238-17.43-20.68-17.43-1.781 0-3.359 0.21-4.937 0.53-1.465-0.84-2.942-2.31-2.942-4.73 0-2.52 1.684-3.67 5.258-3.67h12.176c9.66 0 15.117-4.41 15.117-11.97 0-10.5-10.293-20.16-28.031-20.16-12.914 0-19.215 4.52-19.215 12.18 0 7.35 5.777 10.81 9.555 11.97v0.21c-2.727 1.47-4.301 3.99-4.301 7.35 0 6.09 5.562 8.92 7.558 9.97v0.21c-5.879 2.63-9.66 7.98-9.66 15.54 0 11.02 9.242 16.79 19.946 16.79 2.835 0 5.566-0.42 8.191-1.26h18.367l-1.148-5.98"/>
   <path transform="matrix(.13333 0 0 -.13333 0 181.41)" d="m910.68 1092.7h-12.809v-39.26l7.141-1.36c1.051-0.22 1.469-0.53 1.469-1.37 0-1.05-0.739-2.63-1.047-2.94h-24.989s-0.101 0.63-0.101 0.95c0 1.88 1.262 2.72 3.254 3.46l3.566 1.26v39.26h-7.765s-0.11 0.63-0.11 0.95c0 1.99 1.262 3.04 3.258 3.56l4.617 1.26v1.06c0 16.9 10.289 25.09 19.317 25.09 5.25 0 7.347-2.31 7.347-5.57 0-2.62-1.57-4.09-3.148-4.93-0.942 1.05-3.676 3.05-6.926 3.05-4.512 0-6.09-2.52-6.09-8.72 0-3.26 0.207-9.98 0.207-9.98h13.969l-1.16-5.77"/>
   <path transform="matrix(.13333 0 0 -.13333 0 181.41)" d="m935.69 1090.1h0.313c2.207 3.57 6.094 9.65 12.914 9.65 4.937 0 7.242-2.3 7.242-5.56 0-2.31-1.047-4.3-1.883-5.36-0.839 0.43-3.468 1.58-7.039 1.58-5.773 0-8.715-2.31-10.918-5.35v-31.6l7.559-1.36c1.051-0.22 1.473-0.53 1.473-1.37 0-1.05-0.84-2.63-1.051-2.94h-25.406s-0.11 0.63-0.11 0.95c0 1.88 1.262 2.72 3.258 3.46l3.68 1.26v38.84l-7.457 1.16s-0.106 0.63-0.106 1.05c0 1.78 1.363 3.04 3.883 3.25l14.277 1.37-0.629-9.03"/>
   <path transform="matrix(.13333 0 0 -.13333 0 181.41)" d="m972.22 1073.2c0-14.06 5.672-20.36 13.437-20.36 7.77 0 13.539 6.09 13.539 20.16 0 14.06-5.769 20.57-13.539 20.57-7.765 0-13.437-6.19-13.437-20.37zm38.211 0.43c0-18.16-12.696-27.09-25.508-27.09-13.121 0-23.938 8.4-23.938 26.03 0 17.75 12.598 27.19 25.934 27.19 13.122 0 23.512-7.87 23.512-26.13"/>
   <path transform="matrix(.13333 0 0 -.13333 0 181.41)" d="m1098.6 1053.4 5.98-1.36c1.05-0.22 1.47-0.53 1.47-1.37 0-1.05-0.73-2.63-1.05-2.94h-23.73s-0.1 0.63-0.1 0.95c0 1.88 1.26 2.83 3.26 3.46l3.45 1.26v26.56c0 9.13-4.51 11.65-9.44 11.65-6.41 0-9.97-2.73-12.39-4.93 0.32-1.68 0.53-3.47 0.53-5.46v-27.82l6.09-1.36c1.04-0.22 1.46-0.53 1.46-1.37 0-1.05-0.73-2.63-1.04-2.94h-23.84s-0.1 0.63-0.1 0.95c0 1.88 1.26 2.83 3.26 3.46l3.46 1.26v26.56c0 9.13-4.41 11.65-9.34 11.65-5.88 0-9.35-2.41-11.76-4.41v-33.8l5.99-1.36c1.04-0.22 1.46-0.53 1.46-1.37 0-1.05-0.84-2.63-1.04-2.94h-23.84s-0.1 0.63-0.1 0.95c0 1.88 1.25 2.72 3.25 3.46l3.67 1.26v38.84l-7.45 1.16s-0.11 0.63-0.11 1.05c0 1.78 1.37 3.04 3.89 3.25l14.28 1.37-0.64-6.83h0.33c2.19 2.41 7.34 7.45 16.58 7.45 6.41 0 11.13-2.94 13.54-8.5 2.84 3.15 8.4 8.5 17.85 8.5 10.07 0 16.17-6.4 16.17-18.47v-27.82"/>
   <path transform="matrix(.13333 0 0 -.13333 0 181.41)" d="m1163.4 1092.7h-14.38v-30.65c0-4.73 1.47-8.61 6.72-8.61 4.1 0 7.46 1.78 8.3 2.52 0.51-0.84 0.93-2.42 0.93-3.46 0-1.06-3.67-5.99-13.22-5.99-9.56 0-13.34 5.57-13.34 13.65v32.54h-7.87s-0.11 0.63-0.11 0.95c0 1.99 1.26 3.14 3.27 3.56l5.13 1.26 2.42 14.18h7.77v-14.18h15.53l-1.15-5.77"/>
   <path transform="matrix(.13333 0 0 -.13333 0 181.41)" d="m1188.7 1092.2h0.21c2.1 2.52 7.14 7.56 16.17 7.56 10.5 0 16.48-6.19 16.48-18.47v-27.82l6.09-1.36c1.05-0.22 1.46-0.53 1.46-1.37 0-1.05-0.84-2.63-1.04-2.94h-23.83s-0.11 0.63-0.11 0.95c0 1.88 1.26 2.83 3.26 3.46l3.46 1.26v26.56c0 8.92-4.82 11.65-10.18 11.65-6.51 0-9.97-2.84-11.97-4.83v-33.38l5.88-1.36c1.05-0.22 1.47-0.53 1.47-1.37 0-1.05-0.73-2.63-1.05-2.94h-23.83s-0.1 0.63-0.1 0.95c0 1.88 1.26 2.83 3.25 3.46l3.67 1.26v63.73l-7.45 1.04s-0.11 0.74-0.11 1.16c0 1.78 1.37 3.04 3.89 3.25l14.38 1.37v-31.82"/>
   <path transform="matrix(.13333 0 0 -.13333 0 181.41)" d="m1263.4 1078.5c0.21 0.94 0.53 2.73 0.53 4.51 0 5.77-2.11 10.71-8.2 10.71-6.19 0-9.87-4.94-10.6-15.22zm-18.38-5.56c0.11-13.02 6.31-19.11 15.33-19.11 6.72 0 10.5 2.62 13.13 4.83 1.04-0.84 1.57-2.63 1.57-3.57 0-2.62-6.92-8.61-18.58-8.61-12.91 0-22.57 7.35-22.57 25.62 0 18.26 11.02 27.6 22.99 27.6 11.86 0 17.85-7.24 17.85-17.74 0-2.73-0.53-6.4-1.26-9.02h-28.46"/>
   <path transform="matrix(.13333 0 0 -.13333 0 181.41)" d="m1292 1046.4c-3.69 0-6.52 2.52-6.52 6.41 0 3.99 2.83 6.51 6.52 6.51 3.67 0 6.61-2.52 6.61-6.51 0-3.89-2.94-6.41-6.61-6.41zm0 40.42c-3.69 0-6.52 2.52-6.52 6.41 0 3.98 2.83 6.5 6.52 6.5 3.67 0 6.61-2.52 6.61-6.5 0-3.89-2.94-6.41-6.61-6.41"/>
  </g>
 </g>
</svg>
